<?xml version="1.0" encoding="iso-8859-1"?>
<!-- Uploaded to: SVG Repo, www.svgrepo.com, Generator: SVG Repo Mixer Tools -->
<svg height="800px" width="800px" version="1.1" id="Layer_1" xmlns="http://www.w3.org/2000/svg" xmlns:xlink="http://www.w3.org/1999/xlink" 
	 viewBox="0 0 511.971 511.971" xml:space="preserve">
<g transform="translate(1 1)">
	<path style="fill:#00DA6C;" d="M387.771,323.237c5.12-17.067,8.533-34.987,8.533-52.907c0-80.213-57.173-143.36-128-143.36
		s-128,63.147-128,143.36c0,17.92,3.413,35.84,8.533,52.907H387.771z"/>
	<path style="fill:#00AD55;" d="M268.304,126.971c-4.267,0-8.533,0-12.8,0.853c64.853,6.827,115.2,66.56,115.2,142.507
		c0,17.92-3.413,35.84-8.533,52.907h25.6c5.12-17.067,8.533-34.987,8.533-52.907C396.304,190.117,339.131,126.971,268.304,126.971"
		/>
	<path style="fill:#00DA6C;" d="M183.824,162.811c-15.36-10.24-21.333-14.507-29.013-17.067c-35.84-14.507-74.24-0.853-87.04,30.72
		s5.973,68.267,40.96,82.773c7.68,3.413,15.36,5.12,31.573,11.093C140.304,226.811,157.371,188.411,183.824,162.811"/>
	<path style="fill:#FFFFFF;" d="M133.477,263.504c-35.84-14.507-53.76-51.2-40.96-82.773c8.533-21.333,29.013-34.133,52.053-35.84
		c-32.427-8.533-65.707,5.12-76.8,34.133c-12.8,31.573,5.973,68.267,40.96,82.773c7.68,3.413,15.36,5.12,31.573,11.093
		c0-1.707,0-4.267,0-5.973C137.744,265.211,136.037,264.357,133.477,263.504"/>
	<path style="fill:#00DA6C;" d="M402.277,18.597c-46.933-19.627-102.4,7.68-125.44,60.587c-4.267,11.093-8.533,23.893-8.533,47.787
		l0,0c57.173,0,105.813,41.813,122.027,99.84c23.04-28.16,44.373-48.64,56.32-76.8C468.837,97.104,449.211,38.224,402.277,18.597"/>
	<path style="fill:#00AD55;" d="M402.277,20.304c-10.24-4.267-21.333-5.973-31.573-5.973c1.707,0.853,4.267,0.853,5.973,1.707
		c46.933,19.627,66.56,78.507,44.373,131.413c-9.387,21.333-23.04,38.4-40.107,57.173c3.413,7.68,6.827,15.36,8.533,23.893
		c23.04-28.16,44.373-48.64,56.32-76.8C468.837,98.811,448.357,39.931,402.277,20.304"/>
	<path style="fill:#FFE100;" d="M438.971,343.717c0,7.68-5.973,13.653-13.653,13.653H111.291c-7.68,0-13.653-5.973-13.653-13.653
		v-7.68c0-6.827,5.973-12.8,13.653-12.8h314.88c7.68,0,13.653,5.973,13.653,13.653L438.971,343.717L438.971,343.717z"/>
	<path style="fill:#FFFFFF;" d="M123.237,343.717v-7.68c0-7.68,5.973-13.653,13.653-13.653h-25.6
		c-7.68,0.853-13.653,6.827-13.653,14.507v7.68c0,6.827,5.973,12.8,13.653,12.8h25.6
		C129.211,357.371,123.237,351.397,123.237,343.717"/>
	<path style="fill:#FFA800;" d="M425.317,323.237h-25.6c7.68,0,13.653,5.973,13.653,13.653v7.68c0,7.68-5.973,13.653-13.653,13.653
		h25.6c7.68,0,13.653-5.973,13.653-13.653v-7.68C438.971,329.211,432.997,323.237,425.317,323.237"/>
	<polygon style="fill:#FFE100;" points="362.171,502.437 174.437,502.437 123.237,357.371 413.371,357.371 	"/>
	<path style="fill:#FECC00;" d="M381.797,446.117l-16.213-9.387c-6.827-4.267-16.213-3.413-22.187,1.707l-12.8,11.093
		c-6.827,5.973-15.36,10.24-24.747,10.24c-8.533,0-16.213-1.707-21.333-7.68l-33.28-34.987c-10.24-10.24-17.92-10.24-33.28-4.267
		c-8.533,3.413-16.213,12.8-26.453,12.8c-11.947,0-20.48-4.267-25.6-8.533l-30.72-27.307l39.253,112.64h187.733L381.797,446.117z"/>
	<polygon style="fill:#FFA800;" points="387.771,357.371 345.957,502.437 362.171,502.437 413.371,357.371 	"/>
	<polygon style="fill:#FFFFFF;" points="123.237,357.371 174.437,502.437 190.651,502.437 148.837,357.371 	"/>
	<path d="M425.317,365.904H111.291c-11.947,0-22.187-10.24-22.187-22.187v-7.68c0-11.093,10.24-21.333,22.187-21.333h314.88
		c11.947,0,22.187,10.24,22.187,22.187v7.68C447.504,355.664,437.264,365.904,425.317,365.904z M106.171,336.891v7.68
		c0,1.707,2.56,4.267,5.12,4.267h314.88c2.56,0,5.12-2.56,5.12-5.12v-7.68c0-2.56-2.56-5.12-5.12-5.12h-314.88
		C111.291,330.917,106.171,330.917,106.171,336.891z"/>
	<path d="M368.144,510.971h-199.68l-57.173-162.133h314.027L368.144,510.971z M180.411,493.904h175.787l45.227-128h-266.24
		L180.411,493.904z"/>
	<path d="M394.597,328.357H142.011l-1.707-5.973c-5.973-18.773-8.533-36.693-8.533-54.613c0-81.92,61.44-149.333,136.533-149.333
		c76.8,0,136.533,65.707,136.533,149.333c0,18.773-2.56,36.693-8.533,54.613L394.597,328.357z M154.811,312.144h226.133
		c4.267-14.507,5.973-29.013,5.973-43.52c0.853-75.093-51.2-133.12-118.613-133.12c-65.707,0-119.467,59.733-119.467,133.12
		C148.837,282.277,150.544,296.784,154.811,312.144z"/>
	<path d="M336.571,58.704c-2.56,0-5.973-1.707-7.68-4.267l-25.6-42.667c-1.707-4.267-0.853-9.387,3.413-11.947
		c4.267-1.707,9.387-0.853,11.947,3.413l25.6,42.667c1.707,4.267,0.853,9.387-3.413,11.947
		C339.984,58.704,338.277,58.704,336.571,58.704z"/>
	<path d="M362.171,101.371c-0.853,0-1.707,0-1.707,0c-4.267-0.853-7.68-5.973-5.973-10.24l8.533-34.133
		c0.853-4.267,5.973-7.68,10.24-5.973c4.267,0.853,7.68,5.973,5.973,10.24l-8.533,34.133
		C369.851,98.811,365.584,101.371,362.171,101.371z"/>
	<path d="M431.291,113.317c-1.707-4.267,0-9.387,3.413-11.093l34.133-17.067c4.267-1.707,9.387,0,11.093,3.413
		c1.707,4.267,0,9.387-3.413,11.093l-34.133,17.067C440.677,117.584,432.997,116.731,431.291,113.317z"/>
	<path d="M413.371,58.704c-2.56,0-4.267-0.853-5.973-2.56c-3.413-3.413-3.413-8.533,0-11.947l34.133-34.133
		c3.413-3.413,8.533-3.413,11.947,0c3.413,3.413,3.413,8.533,0,11.947l-34.133,34.133C417.637,57.851,415.931,58.704,413.371,58.704
		z"/>
	<path d="M370.704,145.744c-0.853-4.267,1.707-9.387,5.973-10.24l34.133-8.533c4.267-0.853,9.387,1.707,10.24,5.973
		c0.853,4.267-1.707,9.387-5.973,10.24l-34.133,8.533C377.531,153.424,371.557,150.011,370.704,145.744z"/>
	<path d="M225.637,272.037c-2.56,0-4.267-0.853-5.973-2.56l-25.6-25.6c-3.413-3.413-3.413-8.533,0-11.947s8.533-3.413,11.947,0
		l25.6,25.6c3.413,3.413,3.413,8.533,0,11.947C229.904,271.184,228.197,272.037,225.637,272.037z"/>
	<path d="M310.971,246.437c-0.853,0-0.853,0-1.707,0c-4.267-0.853-7.68-5.12-6.827-10.24l8.533-42.667
		c0.853-4.267,5.12-7.68,10.24-6.827c4.267,0.853,7.68,5.12,6.827,10.24l-8.533,42.667
		C318.651,243.877,315.237,246.437,310.971,246.437z"/>
	<path d="M234.171,169.637c-3.413,0-6.827-2.56-7.68-5.973l-17.067-51.2c-1.707-4.267,0.853-9.387,5.12-11.093
		c4.267-1.707,9.387,0.853,11.093,5.12l17.067,51.2c1.707,4.267-0.853,9.387-5.12,11.093
		C235.877,169.637,235.024,169.637,234.171,169.637z"/>
	<path d="M123.237,169.637c-4.267,0-7.68-2.56-8.533-6.827l-8.533-42.667c-0.853-4.267,1.707-9.387,6.827-10.24
		c4.267-0.853,9.387,1.707,10.24,6.827l8.533,42.667c0.853,4.267-1.707,9.387-6.827,10.24
		C124.091,169.637,124.091,169.637,123.237,169.637z"/>
	<path d="M80.571,203.771H37.904c-5.12,0-8.533-3.413-8.533-8.533c0-5.12,3.413-8.533,8.533-8.533h42.667
		c5.12,0,8.533,3.413,8.533,8.533C89.104,200.357,85.691,203.771,80.571,203.771z"/>
	<path d="M80.571,280.571c-1.707,0-3.413-0.853-5.12-1.707c-3.413-2.56-4.267-8.533-1.707-11.947l25.6-34.133
		c2.56-3.413,8.533-4.267,11.947-1.707s4.267,8.533,1.707,11.947l-25.6,34.133C85.691,279.717,83.131,280.571,80.571,280.571z"/>
	<path d="M363.877,285.691c-2.56-4.267-1.707-9.387,2.56-11.947l51.2-34.133c4.267-2.56,9.387-1.707,11.947,2.56
		c2.56,4.267,1.707,9.387-2.56,11.947l-51.2,34.133C368.997,290.811,365.584,287.397,363.877,285.691z"/>
	<path d="M421.904,510.971H106.171c-5.12,0-8.533-3.413-8.533-8.533s3.413-8.533,8.533-8.533h315.733
		c5.12,0,8.533,3.413,8.533,8.533S427.024,510.971,421.904,510.971z"/>
	<path d="M148.837,282.277l-11.093-4.267c-8.533-3.413-15.36-5.12-19.627-6.827c-4.267-1.707-8.533-2.56-11.947-4.267
		c-18.773-7.68-34.133-21.333-43.52-39.253c-8.533-17.92-10.24-37.547-2.56-54.613c14.507-35.84,58.88-51.2,98.133-34.987
		c7.68,3.413,14.507,6.827,30.72,17.92l8.533,5.973l-7.68,7.68c-25.6,25.6-40.96,62.293-40.96,100.693L148.837,282.277z
		 M125.797,148.304c-22.187,0-42.667,11.093-50.347,30.72c-5.12,12.8-4.267,27.307,2.56,40.96s18.773,24.747,34.133,30.72
		c3.413,1.707,6.827,2.56,11.093,3.413c2.56,0.853,5.973,1.707,9.387,3.413c2.56-34.987,16.213-68.267,38.4-93.867
		c-9.387-5.973-13.653-8.533-18.773-11.093C142.864,150.011,134.331,148.304,125.797,148.304z"/>
	<path d="M386.917,245.584l-4.267-16.213c-15.36-56.32-61.44-93.867-114.347-93.867h-8.533v-8.533c0-25.6,5.12-40.107,10.24-52.053
		c11.947-27.307,32.427-49.493,57.173-61.44c25.6-12.8,53.76-13.653,78.507-3.413c24.747,11.093,43.52,31.573,52.907,58.88
		c9.387,26.453,7.68,57.173-4.267,84.48c-9.387,23.04-25.6,40.96-41.813,60.587c-5.12,5.973-10.24,11.947-15.36,18.773
		L386.917,245.584z M276.837,118.437c52.053,3.413,97.28,38.4,116.907,91.307c1.707-2.56,4.267-4.267,5.973-6.827
		c16.213-19.627,30.72-35.84,39.253-56.32c10.24-23.893,11.093-49.493,3.413-72.533c-7.68-22.187-23.04-39.253-43.52-47.787l0,0
		c-20.48-8.533-43.52-7.68-64.853,2.56s-39.253,29.013-49.493,52.907C281.104,91.131,277.691,101.371,276.837,118.437z"/>
	<path d="M368.144,510.971h-199.68l-52.907-148.48l55.467,48.64c2.56,1.707,8.533,6.827,19.627,6.827
		c3.413,0,7.68-2.56,11.947-5.973c3.413-2.56,6.827-5.12,11.093-6.827c16.213-6.827,28.16-7.68,42.667,5.973l33.28,35.84
		c2.56,3.413,8.533,5.12,14.507,5.12c8.533,0,15.36-5.12,19.627-8.533l12.8-11.093c9.387-7.68,22.187-8.533,31.573-2.56l23.04,12.8
		L368.144,510.971z M180.411,493.904h175.787l15.36-43.52l-10.24-5.973c-4.267-2.56-8.533-1.707-11.947,0.853l-12.8,11.093
		c-9.387,7.68-19.627,11.947-29.867,11.947c-11.947,0.853-22.187-3.413-28.16-10.24l-33.28-34.987
		c-6.827-6.827-10.24-7.68-23.893-2.56c-2.56,0.853-5.12,2.56-7.68,5.12c-5.973,4.267-12.8,8.533-21.333,8.533
		c-17.067,0-27.307-7.68-30.72-10.24l-6.827-5.973L180.411,493.904z"/>
</g>
</svg>